<svg width="254" height="34" viewBox="0 0 254 34" fill="none" xmlns="http://www.w3.org/2000/svg">
<path d="M0.116406 12.31C0.135807 11.9413 0.271615 11.6697 0.523828 11.4951C0.776042 11.3011 1.04766 11.2041 1.33867 11.2041C1.62969 11.2041 1.8819 11.3011 2.09531 11.4951C2.32812 11.6697 2.43483 11.9413 2.41543 12.31C2.41543 12.4264 2.40573 12.5525 2.38633 12.6883C2.38633 12.8047 2.38633 12.9211 2.38633 13.0375C3.00716 12.7271 3.6571 12.4652 4.33613 12.2518C5.03457 12.0189 5.72331 11.8734 6.40234 11.8152C7.10078 11.757 7.77012 11.8152 8.41035 11.9898C9.06999 12.1451 9.67142 12.4555 10.2146 12.9211C10.4863 13.1733 10.6027 13.4449 10.5639 13.7359C10.5445 14.027 10.4281 14.2792 10.2146 14.4926C10.0206 14.6866 9.76842 14.8127 9.45801 14.8709C9.14759 14.9097 8.84687 14.8127 8.55586 14.5799C8.34245 14.4053 8.09993 14.2792 7.82832 14.2016C7.57611 14.124 7.29479 14.0949 6.98437 14.1143C6.69336 14.1143 6.39264 14.1434 6.08223 14.2016C5.79121 14.2598 5.5099 14.3277 5.23828 14.4053C4.21003 14.7351 3.24967 15.1716 2.35723 15.7148C2.39603 16.6655 2.45423 17.6161 2.53184 18.5668C2.60944 19.3622 2.67734 20.1868 2.73555 21.0404C2.79375 21.8747 2.95866 22.6701 3.23027 23.4268C3.34668 23.776 3.31758 24.067 3.14297 24.2998C2.98776 24.552 2.76465 24.7169 2.47363 24.7945C2.20202 24.8721 1.911 24.8527 1.60059 24.7363C1.30957 24.6199 1.10586 24.3871 0.989453 24.0379C0.834245 23.5917 0.727539 23.1357 0.669336 22.6701C0.611133 22.2045 0.55293 21.7389 0.494727 21.2732C0.455924 20.827 0.407422 20.3808 0.349219 19.9346C0.310417 19.4689 0.271615 19.013 0.232812 18.5668C0.135807 17.5191 0.0679036 16.4812 0.0291015 15.4529C0.00970048 14.4053 0.038802 13.3576 0.116406 12.31ZM13.9979 23.3686C13.3382 23.0775 12.8144 22.6798 12.4264 22.1754C12.0577 21.6516 11.7958 21.0792 11.6406 20.4584C11.5048 19.8376 11.466 19.1973 11.5242 18.5377C11.5824 17.8587 11.7182 17.2087 11.9316 16.5879C12.1062 16.1029 12.3003 15.5984 12.5137 15.0746C12.7465 14.5508 13.0181 14.0658 13.3285 13.6195C13.6389 13.1733 14.0076 12.795 14.4344 12.4846C14.8612 12.1548 15.3656 11.9413 15.9477 11.8443C16.5491 11.7473 17.1505 11.7182 17.752 11.757C18.3728 11.7764 18.9839 11.8346 19.5854 11.9316C19.857 11.9704 20.1189 12.0383 20.3711 12.1354C20.6233 12.213 20.8755 12.3003 21.1277 12.3973C21.1471 12.1063 21.2732 11.8637 21.5061 11.6697C21.7583 11.4757 22.0202 11.3787 22.2918 11.3787C22.6216 11.3787 22.8835 11.4951 23.0775 11.7279C23.2909 11.9413 23.4171 12.2033 23.4559 12.5137C23.5529 13.4061 23.5917 14.2986 23.5723 15.191C23.5723 16.0835 23.5432 16.9759 23.485 17.8684C23.4462 18.7608 23.4074 19.6533 23.3686 20.5457C23.3492 21.4382 23.3589 22.3306 23.3977 23.223C23.4171 23.5917 23.3006 23.873 23.0484 24.067C22.8156 24.2416 22.5537 24.3289 22.2627 24.3289C21.9717 24.3289 21.7001 24.2416 21.4479 24.067C21.215 23.873 21.0889 23.5917 21.0695 23.223C19.9637 23.6887 18.7899 23.9603 17.5482 24.0379C16.3066 24.0961 15.1231 23.873 13.9979 23.3686ZM14.2016 17.0535C14.0852 17.4027 13.9784 17.8005 13.8814 18.2467C13.7844 18.6929 13.7553 19.1197 13.7941 19.5271C13.8329 19.9346 13.959 20.3129 14.1725 20.6621C14.3859 20.9919 14.7351 21.2247 15.2201 21.3605C16.2096 21.671 17.199 21.7583 18.1885 21.6225C19.1973 21.4867 20.1383 21.1374 21.0113 20.5748C21.0889 19.6242 21.1471 18.7026 21.1859 17.8102C21.2441 16.9177 21.2635 16.0156 21.2441 15.1037C20.9143 14.8903 20.5748 14.706 20.2256 14.5508C19.8958 14.3762 19.5271 14.2598 19.1197 14.2016C18.7123 14.1434 18.2758 14.1046 17.8102 14.0852C17.3639 14.0464 16.9274 14.0464 16.5006 14.0852C16.4618 14.0852 16.3551 14.1143 16.1805 14.1725C16.0253 14.2113 15.938 14.2404 15.9186 14.2598C15.7245 14.3568 15.5499 14.512 15.3947 14.7254C15.1425 15.0746 14.9194 15.4529 14.7254 15.8604C14.5314 16.2484 14.3568 16.6461 14.2016 17.0535ZM26.4242 23.8633C26.5794 22.932 26.754 22.0202 26.948 21.1277C27.1615 20.2159 27.3167 19.2943 27.4137 18.3631C27.4913 17.4512 27.501 16.5588 27.4428 15.6857C27.404 14.7933 27.4622 13.8911 27.6174 12.9793C27.6562 12.6689 27.8308 12.4361 28.1412 12.2809C28.471 12.1257 28.7717 12.0868 29.0434 12.1645C29.3732 12.2615 29.5963 12.4458 29.7127 12.7174C29.8485 12.989 29.897 13.28 29.8582 13.5904C29.7806 14.0367 29.7418 14.4926 29.7418 14.9582C29.7612 15.4238 29.7806 15.8895 29.8 16.3551C29.8 17.2475 29.7418 18.14 29.6254 19.0324C29.509 19.9637 29.3538 20.8755 29.1598 21.768C28.9852 22.6604 28.8202 23.5626 28.665 24.4744C28.6068 24.7848 28.4225 25.0176 28.1121 25.1729C27.8017 25.3281 27.5107 25.3669 27.2391 25.2893C26.9092 25.1923 26.6764 25.0079 26.5406 24.7363C26.4048 24.4647 26.366 24.1737 26.4242 23.8633ZM27.8211 10.4766C27.6853 10.4378 27.5495 10.3796 27.4137 10.302C27.2779 10.2049 27.1809 10.0885 27.1227 9.95273C27.0645 9.79753 27.0159 9.66172 26.9771 9.54531C26.9383 9.42891 26.9189 9.2931 26.9189 9.13789C26.9189 8.96328 26.948 8.78867 27.0062 8.61406C27.0839 8.26484 27.2391 8.01263 27.4719 7.85742C27.5495 7.74102 27.6562 7.65371 27.792 7.59551C28.0054 7.4597 28.2479 7.3918 28.5195 7.3918C28.7911 7.3724 29.0337 7.4403 29.2471 7.59551C29.3441 7.67311 29.4411 7.76042 29.5381 7.85742C29.6351 7.93503 29.7127 8.04173 29.7709 8.17754C29.8097 8.27454 29.8485 8.38125 29.8873 8.49766C29.9455 8.61406 29.9649 8.73047 29.9455 8.84688C29.9261 8.98268 29.9067 9.10879 29.8873 9.2252C29.8679 9.3416 29.8194 9.44831 29.7418 9.54531C29.6448 9.68112 29.5672 9.77813 29.509 9.83633C29.4508 9.89453 29.3538 9.97214 29.218 10.0691C29.1404 10.1467 29.024 10.2049 28.8687 10.2438C28.4613 10.4766 28.1121 10.5542 27.8211 10.4766ZM34.1652 17.6938C33.6608 17.3251 33.3019 16.8692 33.0885 16.326C32.8751 15.7633 32.8654 15.1716 33.0594 14.5508C33.2534 13.9882 33.5541 13.4837 33.9615 13.0375C34.3689 12.5913 34.8346 12.2324 35.3584 11.9607C35.9404 11.6503 36.5613 11.4078 37.2209 11.2332C37.8805 11.0586 38.5499 10.9616 39.2289 10.9422C39.9079 10.9228 40.5773 10.9907 41.2369 11.1459C41.9159 11.2817 42.5562 11.5048 43.1576 11.8152C43.4874 11.9898 43.6717 12.2227 43.7105 12.5137C43.7493 12.8047 43.6911 13.0763 43.5359 13.3285C43.4001 13.5807 43.1867 13.765 42.8957 13.8814C42.6047 13.9979 42.2943 13.9688 41.9644 13.7941C41.4988 13.5419 40.975 13.377 40.393 13.2994C39.8109 13.2218 39.2192 13.2218 38.6178 13.2994C38.0357 13.3576 37.4828 13.5031 36.959 13.7359C36.4352 13.9688 35.9986 14.2695 35.6494 14.6381C35.5524 14.7351 35.4845 14.803 35.4457 14.8418C35.4263 14.8806 35.3875 14.9679 35.3293 15.1037L35.2711 15.4238C35.3293 15.5984 35.3778 15.7051 35.4166 15.7439C35.8046 15.9962 36.2023 16.1611 36.6098 16.2387C37.0366 16.2969 37.4634 16.3357 37.8902 16.3551C38.4917 16.3939 39.1028 16.4327 39.7236 16.4715C40.3639 16.4909 40.975 16.5685 41.557 16.7043C42.1585 16.8401 42.7114 17.0632 43.2158 17.3736C43.7202 17.684 44.1471 18.14 44.4963 18.7414C44.8843 19.4204 45.0589 20.1286 45.0201 20.8658C45.0007 21.5837 44.7194 22.2336 44.1762 22.8156C43.6329 23.3977 43.0024 23.8051 42.2846 24.0379C41.5667 24.2513 40.8392 24.4065 40.1019 24.5035C39.4423 24.5811 38.7536 24.6005 38.0357 24.5617C37.3373 24.5229 36.6583 24.4065 35.9986 24.2125C35.3584 24.0379 34.757 23.7663 34.1943 23.3977C33.6317 23.0096 33.1661 22.5052 32.7975 21.8844C32.6228 21.574 32.5937 21.2829 32.7102 21.0113C32.8266 20.7203 33.0012 20.5069 33.234 20.3711C33.4862 20.2159 33.7578 20.1577 34.0488 20.1965C34.3592 20.2353 34.6115 20.4099 34.8055 20.7203C35.0771 21.1665 35.4554 21.5061 35.9404 21.7389C36.4255 21.9717 36.9493 22.1366 37.5119 22.2336C38.0939 22.3112 38.676 22.3306 39.258 22.2918C39.84 22.2336 40.3639 22.156 40.8295 22.059C41.0817 22.0008 41.3339 21.9232 41.5861 21.8262C41.8577 21.7098 42.0809 21.574 42.2555 21.4188C42.4495 21.2635 42.5853 21.0889 42.6629 20.8949C42.7405 20.6815 42.7308 20.4487 42.6338 20.1965C42.4398 19.7115 42.11 19.3622 41.6443 19.1488C41.1981 18.9354 40.7228 18.8093 40.2184 18.7705C39.7139 18.7317 39.1998 18.7123 38.676 18.7123C38.1521 18.7123 37.6283 18.6929 37.1045 18.6541C36.5807 18.5959 36.0665 18.4989 35.5621 18.3631C35.0577 18.2273 34.5921 18.0042 34.1652 17.6938ZM48.1049 12.8629C48.4735 12.3585 48.91 11.9122 49.4145 11.5242C49.9383 11.1362 50.4912 10.8355 51.0732 10.6221C51.6553 10.3893 52.2567 10.2729 52.8775 10.2729C53.4984 10.2535 54.1192 10.3699 54.74 10.6221C55.3415 10.8549 55.8847 11.175 56.3697 11.5824C56.8548 11.9704 57.2331 12.4749 57.5047 13.0957C57.7181 13.5613 57.8442 14.0658 57.883 14.609C57.9218 15.1522 57.7763 15.6469 57.4465 16.0932C57.1555 16.5006 56.7965 16.811 56.3697 17.0244C55.9623 17.2378 55.5161 17.393 55.0311 17.49C54.5654 17.587 54.0804 17.6355 53.576 17.6355C53.0909 17.6355 52.6253 17.6258 52.1791 17.6064C51.6747 17.587 51.1702 17.5482 50.6658 17.49C50.1808 17.4318 49.6861 17.3736 49.1816 17.3154C49.3368 18.1885 49.6473 18.9645 50.1129 19.6436C50.5785 20.3226 51.209 20.8367 52.0045 21.1859C52.2179 21.2635 52.3828 21.3217 52.4992 21.3605C52.5574 21.3799 52.6059 21.3993 52.6447 21.4188C52.7029 21.4188 52.7611 21.4188 52.8193 21.4188C52.9745 21.4382 53.1006 21.4576 53.1977 21.477C53.3141 21.477 53.4208 21.4673 53.5178 21.4479C53.6536 21.4285 53.7409 21.4188 53.7797 21.4188C53.8379 21.3993 53.8961 21.3799 53.9543 21.3605C54.1677 21.3023 54.352 21.2344 54.5072 21.1568C54.6818 21.0792 54.8855 20.9531 55.1184 20.7785C55.2348 20.6815 55.39 20.536 55.584 20.342C55.778 20.148 55.9429 19.9734 56.0787 19.8182C56.2727 19.5465 56.5055 19.3622 56.7771 19.2652C57.0682 19.1682 57.3592 19.207 57.6502 19.3816C57.9024 19.5368 58.077 19.7794 58.174 20.1092C58.2904 20.4196 58.2516 20.7106 58.0576 20.9822C57.495 21.7389 56.8256 22.3888 56.0496 22.932C55.293 23.4559 54.4199 23.7372 53.4305 23.776C52.635 23.8148 51.8687 23.679 51.1314 23.3686C50.3942 23.0387 49.7443 22.6022 49.1816 22.059C48.4832 21.3799 47.9303 20.5942 47.5228 19.7018C47.1154 18.8093 46.8923 17.8975 46.8535 16.9662C46.6789 16.8304 46.5431 16.6655 46.4461 16.4715C46.3685 16.2581 46.3394 16.0447 46.3588 15.8313C46.3976 15.6178 46.4752 15.4238 46.5916 15.2492C46.708 15.0552 46.8826 14.9291 47.1154 14.8709C47.3288 14.1531 47.6587 13.4837 48.1049 12.8629ZM55.0893 13.5613C54.8758 13.2897 54.546 13.0472 54.0998 12.8338C53.7312 12.6786 53.2947 12.601 52.7902 12.601C52.3052 12.601 51.8881 12.6883 51.5389 12.8629C51.0926 13.0763 50.6949 13.377 50.3457 13.765C49.9965 14.1337 49.7152 14.5508 49.5018 15.0164C49.9674 15.0746 50.433 15.1328 50.8986 15.191C51.3643 15.2492 51.8299 15.288 52.2955 15.3074C52.5477 15.3074 52.7999 15.3074 53.0521 15.3074C53.3044 15.3074 53.5566 15.2977 53.8088 15.2783C53.8864 15.2783 53.9543 15.2783 54.0125 15.2783C54.0901 15.2589 54.1677 15.2492 54.2453 15.2492C54.4199 15.2104 54.546 15.191 54.6236 15.191C54.7206 15.1716 54.8176 15.1425 54.9146 15.1037C54.9923 15.0843 55.0893 15.0552 55.2057 15.0164C55.3027 14.9776 55.3609 14.9485 55.3803 14.9291C55.3997 14.9097 55.4288 14.8903 55.4676 14.8709L55.5549 14.5217C55.5161 14.4441 55.487 14.3762 55.4676 14.318C55.4676 14.2404 55.4482 14.1725 55.4094 14.1143C55.39 14.0561 55.3415 13.9688 55.2639 13.8523C55.2057 13.7359 55.1475 13.6389 55.0893 13.5613ZM62.8012 24.5326C62.5296 24.6296 62.2288 24.6005 61.899 24.4453C61.5886 24.2901 61.414 24.0573 61.3752 23.7469C61.1036 22.0396 60.929 20.3517 60.8514 18.6832C60.7932 16.9953 60.7641 15.2977 60.7641 13.5904C60.7641 13.2994 60.8417 13.0666 60.9969 12.892C61.1521 12.7174 61.3364 12.601 61.5498 12.5428C61.7632 12.4846 61.9863 12.4749 62.2191 12.5137C62.452 12.5525 62.646 12.6495 62.8012 12.8047C63.2474 12.4361 63.7227 12.116 64.2271 11.8443C64.7316 11.5727 65.236 11.3981 65.7404 11.3205C66.2643 11.2235 66.7784 11.2526 67.2828 11.4078C67.7872 11.5436 68.2626 11.8443 68.7088 12.31C69.0774 12.698 69.3975 13.1151 69.6691 13.5613C69.9408 13.9882 70.1833 14.4441 70.3967 14.9291C70.6877 14.1919 71.0951 13.5128 71.6189 12.892C72.1428 12.2712 72.8121 11.854 73.627 11.6406C74.2284 11.4854 74.7037 11.5242 75.0529 11.757C75.4021 11.9704 75.732 12.31 76.0424 12.7756C76.3722 13.2606 76.6729 13.7553 76.9445 14.2598C77.2355 14.7642 77.5072 15.2783 77.7594 15.8021C78.0116 16.326 78.2541 16.8498 78.4869 17.3736C78.7197 17.8975 78.9525 18.4116 79.1853 18.916C79.457 19.4786 79.6898 20.0413 79.8838 20.6039C80.0972 21.1471 80.233 21.7292 80.2912 22.35C80.33 22.6798 80.2136 22.9611 79.942 23.1939C79.6898 23.4074 79.4182 23.5141 79.1271 23.5141C78.7973 23.5141 78.5257 23.4074 78.3123 23.1939C78.1183 22.9611 78.0019 22.6798 77.9631 22.35C77.9243 21.8844 77.7982 21.4382 77.5848 21.0113C77.3908 20.5651 77.1967 20.1286 77.0027 19.7018C76.7893 19.2555 76.5759 18.7996 76.3625 18.334C76.1685 17.8684 75.9648 17.4124 75.7514 16.9662C75.538 16.52 75.3051 16.0738 75.0529 15.6275C74.8201 15.1813 74.5679 14.7448 74.2963 14.318C74.2575 14.2598 74.2187 14.2016 74.1799 14.1434C74.1411 14.0852 74.1023 14.027 74.0635 13.9688C73.6755 14.1822 73.3941 14.3859 73.2195 14.5799C73.0449 14.7739 72.88 15.0358 72.7248 15.3656C72.589 15.6566 72.4726 15.9671 72.3756 16.2969C72.298 16.6073 72.2301 16.9274 72.1719 17.2572C72.0555 17.8781 71.9682 18.528 71.91 19.207C71.8712 19.7115 71.8712 20.1965 71.91 20.6621C71.9682 21.1277 71.9488 21.6128 71.8518 22.1172C71.7936 22.4276 71.6092 22.6604 71.2988 22.8156C71.0078 22.9708 70.7168 23.0096 70.4258 22.932C70.1542 22.8544 69.9505 22.7186 69.8146 22.5246C69.6982 22.3112 69.6206 22.0687 69.5818 21.7971C69.5042 21.1762 69.4169 20.536 69.3199 19.8764C69.2229 19.2167 69.0968 18.5668 68.9416 17.9266C68.7864 17.2669 68.5827 16.6364 68.3305 16.035C68.0977 15.4141 67.7872 14.8418 67.3992 14.318C67.1276 13.9688 66.8463 13.7359 66.5553 13.6195C66.2837 13.5031 65.9441 13.5516 65.5367 13.765C65.0905 13.9979 64.654 14.2792 64.2271 14.609C63.8003 14.9388 63.422 15.3074 63.0922 15.7148C63.1116 16.9565 63.1504 18.1982 63.2086 19.4398C63.2862 20.6621 63.422 21.8844 63.616 23.1066C63.6548 23.4365 63.6063 23.7372 63.4705 24.0088C63.3541 24.261 63.131 24.4356 62.8012 24.5326ZM92.5139 11.0586C92.7855 11.2138 92.9698 11.4466 93.0668 11.757C93.1638 12.0674 93.1153 12.3585 92.9213 12.6301C92.4363 13.3285 92.0676 14.0949 91.8154 14.9291C91.5826 15.7633 91.311 16.5782 91.0006 17.3736C90.6708 18.2273 90.3021 19.0518 89.8947 19.8473C89.5067 20.6427 89.0896 21.4479 88.6434 22.2627C88.6046 22.3597 88.5561 22.447 88.4979 22.5246C88.459 22.5828 88.4202 22.6604 88.3814 22.7574C88.459 23.0678 88.4105 23.3492 88.2359 23.6014C88.0807 23.8342 87.8673 23.9991 87.5957 24.0961C86.8003 25.4542 85.9951 26.7928 85.1803 28.1121C84.3848 29.4508 83.5894 30.7992 82.7939 32.1572C82.5999 32.487 82.3477 32.6714 82.0373 32.7102C81.7463 32.749 81.4747 32.6908 81.2225 32.5355C80.9702 32.3997 80.7859 32.1863 80.6695 31.8953C80.5531 31.6237 80.5919 31.323 80.7859 30.9932C81.6008 29.5963 82.4253 28.2091 83.2596 26.8316C84.0938 25.4736 84.9184 24.0961 85.7332 22.6992C84.8602 21.1277 84.0259 19.5465 83.2305 17.9557C82.435 16.3454 81.6202 14.7448 80.7859 13.1539C80.6113 12.8241 80.5822 12.5234 80.6986 12.2518C80.8344 11.9607 81.0187 11.7473 81.2516 11.6115C81.5038 11.4563 81.7754 11.3981 82.0664 11.4369C82.3768 11.4757 82.6193 11.66 82.7939 11.9898C83.5118 13.3867 84.2199 14.7836 84.9184 16.1805C85.6168 17.5579 86.3346 18.9354 87.0719 20.3129C87.7897 18.9936 88.4299 17.6064 88.9926 16.1514C89.2836 15.3559 89.5552 14.5508 89.8074 13.7359C90.079 12.9017 90.4574 12.1451 90.9424 11.466C91.117 11.1944 91.3498 11.0198 91.6408 10.9422C91.9318 10.8452 92.2229 10.884 92.5139 11.0586ZM97.723 32.5355C97.7424 32.9042 97.6357 33.1758 97.4029 33.3504C97.1895 33.5444 96.9373 33.6414 96.6463 33.6414C96.3553 33.6414 96.0837 33.5444 95.8314 33.3504C95.5792 33.1758 95.4434 32.9042 95.424 32.5355C95.2106 29.4314 95.0845 26.3369 95.0457 23.2521C95.0069 20.148 94.9196 17.0438 94.7838 13.9396C94.5122 13.5128 94.4928 13.1054 94.7256 12.7174C94.7062 12.504 94.6868 12.31 94.6674 12.1354C94.6674 11.9413 94.6577 11.7376 94.6383 11.5242C94.6189 11.175 94.7159 10.9131 94.9293 10.7385C95.1427 10.5445 95.3852 10.4378 95.6568 10.4184C95.9478 10.399 96.2195 10.4766 96.4717 10.6512C96.7239 10.8064 96.8791 11.0489 96.9373 11.3787C97.2671 11.2235 97.5775 11.078 97.8685 10.9422C98.179 10.8064 98.4991 10.6706 98.8289 10.5348C99.1005 10.4184 99.4012 10.3117 99.731 10.2146C100.061 10.0982 100.4 10.0109 100.75 9.95273C101.099 9.89453 101.438 9.86543 101.768 9.86543C102.117 9.86543 102.437 9.92363 102.729 10.04C103.311 10.2729 103.786 10.6221 104.154 11.0877C104.543 11.5533 104.863 12.0674 105.115 12.6301C105.348 13.1733 105.571 13.7262 105.784 14.2889C105.998 14.8321 106.114 15.3947 106.133 15.9768C106.153 16.5782 106.065 17.1408 105.871 17.6646C105.677 18.1885 105.406 18.6638 105.057 19.0906C104.727 19.5174 104.329 19.8958 103.863 20.2256C103.398 20.5554 102.903 20.8367 102.379 21.0695C101.817 21.3217 101.235 21.5449 100.633 21.7389C100.032 21.9329 99.4206 22.059 98.7998 22.1172C98.5282 22.156 98.2663 22.1463 98.0141 22.0881C97.7812 22.0299 97.5581 21.9523 97.3447 21.8553C97.3835 23.6596 97.4223 25.4445 97.4611 27.21C97.5193 28.9755 97.6066 30.7507 97.723 32.5355ZM97.1119 13.8814C97.1507 14.7739 97.1798 15.6663 97.1992 16.5588C97.2186 17.4318 97.2477 18.3146 97.2865 19.207C97.4029 19.2846 97.5193 19.3622 97.6357 19.4398C97.7521 19.498 97.8783 19.566 98.0141 19.6436C98.1693 19.7406 98.2954 19.7988 98.3924 19.8182C98.4894 19.8182 98.6446 19.7988 98.858 19.76C99.2848 19.663 99.7116 19.566 100.138 19.4689C100.565 19.3525 100.973 19.1973 101.361 19.0033C101.729 18.8287 102.079 18.6444 102.408 18.4504C102.738 18.237 103.039 17.9654 103.311 17.6355C103.485 17.4221 103.621 17.1796 103.718 16.908C103.815 16.617 103.844 16.3066 103.805 15.9768C103.786 15.5887 103.689 15.191 103.514 14.7836C103.359 14.3762 103.204 13.9979 103.049 13.6486C102.952 13.474 102.855 13.2994 102.758 13.1248C102.68 12.9308 102.583 12.7562 102.467 12.601C102.292 12.4264 102.156 12.3197 102.059 12.2809C101.516 12.2421 101.041 12.2712 100.633 12.3682C100.226 12.4652 99.8184 12.601 99.4109 12.7756C99.0229 12.9308 98.6349 13.1054 98.2469 13.2994C97.8588 13.4934 97.4805 13.6874 97.1119 13.8814ZM115.446 10.7385C116.067 10.6609 116.717 10.6415 117.396 10.6803C118.075 10.6997 118.725 10.8161 119.346 11.0295C119.966 11.2235 120.529 11.5242 121.033 11.9316C121.538 12.3391 121.926 12.8726 122.197 13.5322C122.391 13.9979 122.488 14.4732 122.488 14.9582C122.508 15.4238 122.44 15.8798 122.285 16.326C122.149 16.7528 121.936 17.1699 121.645 17.5773C121.373 17.9654 121.053 18.3243 120.684 18.6541C119.889 19.3719 119.016 19.9831 118.065 20.4875C117.114 20.9919 116.115 21.3799 115.068 21.6516C114.621 21.768 114.156 21.8747 113.671 21.9717C113.205 22.0493 112.73 22.0881 112.245 22.0881C111.76 22.0881 111.284 22.0396 110.819 21.9426C110.353 21.8262 109.917 21.6419 109.509 21.3896C109.218 21.215 109.044 20.9822 108.985 20.6912C108.869 20.3614 108.743 20.051 108.607 19.76C108.471 19.4689 108.335 19.1682 108.2 18.8578C108.083 18.5474 107.986 18.237 107.909 17.9266C107.831 17.6161 107.792 17.296 107.792 16.9662C107.792 16.3066 107.928 15.6857 108.2 15.1037C108.491 14.5023 108.879 13.9785 109.364 13.5322C110.179 12.7562 111.119 12.1354 112.187 11.6697C113.254 11.2041 114.34 10.8937 115.446 10.7385ZM118.734 13.2412C118.211 13.0472 117.648 12.9502 117.046 12.9502C116.406 12.9308 115.766 12.9987 115.126 13.1539C114.486 13.2897 113.874 13.4837 113.292 13.7359C112.749 13.9493 112.187 14.2501 111.604 14.6381C111.042 15.0067 110.625 15.4626 110.353 16.0059C110.198 16.2969 110.12 16.5976 110.12 16.908C110.14 17.199 110.188 17.4997 110.266 17.8102C110.363 18.1012 110.479 18.4019 110.615 18.7123C110.77 19.0033 110.906 19.2943 111.022 19.5854C111.333 19.663 111.527 19.7018 111.604 19.7018C111.643 19.7212 111.692 19.7309 111.75 19.7309C111.808 19.7309 111.857 19.7309 111.896 19.7309C112.284 19.7697 112.633 19.76 112.943 19.7018C113.157 19.7018 113.428 19.663 113.758 19.5854C114.262 19.4883 114.747 19.3622 115.213 19.207C115.679 19.0324 116.106 18.8481 116.494 18.6541C116.94 18.4407 117.376 18.2079 117.803 17.9557C118.23 17.7035 118.589 17.4415 118.88 17.1699C119.074 16.9953 119.258 16.811 119.433 16.617C119.53 16.52 119.598 16.4424 119.637 16.3842C119.734 16.2484 119.811 16.1514 119.869 16.0932C119.928 16.0156 119.976 15.9283 120.015 15.8313C120.092 15.6954 120.131 15.5887 120.131 15.5111C120.151 15.4723 120.16 15.4238 120.16 15.3656C120.18 15.3074 120.199 15.2589 120.219 15.2201V14.9C120.199 14.8224 120.189 14.7642 120.189 14.7254C120.189 14.6866 120.18 14.6478 120.16 14.609C120.102 14.4732 120.044 14.3762 119.986 14.318C119.947 14.2404 119.898 14.1628 119.84 14.0852C119.86 14.1046 119.831 14.0755 119.753 13.9979C119.695 13.9202 119.656 13.8717 119.637 13.8523L119.404 13.6195C119.307 13.5613 119.2 13.4934 119.084 13.4158C118.967 13.3382 118.851 13.28 118.734 13.2412ZM124.671 12.31C124.69 11.9413 124.826 11.6697 125.079 11.4951C125.331 11.3011 125.602 11.2041 125.893 11.2041C126.184 11.2041 126.437 11.3011 126.65 11.4951C126.883 11.6697 126.99 11.9413 126.97 12.31C126.97 12.4264 126.96 12.5525 126.941 12.6883C126.941 12.8047 126.941 12.9211 126.941 13.0375C127.562 12.7271 128.212 12.4652 128.891 12.2518C129.589 12.0189 130.278 11.8734 130.957 11.8152C131.655 11.757 132.325 11.8152 132.965 11.9898C133.625 12.1451 134.226 12.4555 134.769 12.9211C135.041 13.1733 135.157 13.4449 135.119 13.7359C135.099 14.027 134.983 14.2792 134.769 14.4926C134.575 14.6866 134.323 14.8127 134.013 14.8709C133.702 14.9097 133.402 14.8127 133.111 14.5799C132.897 14.4053 132.655 14.2792 132.383 14.2016C132.131 14.124 131.849 14.0949 131.539 14.1143C131.248 14.1143 130.947 14.1434 130.637 14.2016C130.346 14.2598 130.065 14.3277 129.793 14.4053C128.765 14.7351 127.804 15.1716 126.912 15.7148C126.951 16.6655 127.009 17.6161 127.087 18.5668C127.164 19.3622 127.232 20.1868 127.29 21.0404C127.348 21.8747 127.513 22.6701 127.785 23.4268C127.901 23.776 127.872 24.067 127.698 24.2998C127.542 24.552 127.319 24.7169 127.028 24.7945C126.757 24.8721 126.466 24.8527 126.155 24.7363C125.864 24.6199 125.661 24.3871 125.544 24.0379C125.389 23.5917 125.282 23.1357 125.224 22.6701C125.166 22.2045 125.108 21.7389 125.049 21.2732C125.011 20.827 124.962 20.3808 124.904 19.9346C124.865 19.4689 124.826 19.013 124.787 18.5668C124.69 17.5191 124.623 16.4812 124.584 15.4529C124.564 14.4053 124.593 13.3576 124.671 12.31ZM145.304 13.9979C145.673 13.9979 145.944 14.1143 146.119 14.3471C146.313 14.5799 146.41 14.8418 146.41 15.1328C146.41 15.4238 146.313 15.6954 146.119 15.9477C145.944 16.1805 145.673 16.2969 145.304 16.2969C144.838 16.3163 144.373 16.3163 143.907 16.2969C143.461 16.2581 143.015 16.2193 142.569 16.1805C142.588 17.7132 142.559 19.2458 142.481 20.7785C142.423 22.3112 142.268 23.8342 142.016 25.3475C141.977 25.6773 141.802 25.9198 141.492 26.075C141.181 26.2302 140.881 26.2593 140.59 26.1623C140.26 26.0653 140.027 25.881 139.891 25.6094C139.775 25.3572 139.746 25.0661 139.804 24.7363C140.037 23.2618 140.163 21.7874 140.182 20.3129C140.221 18.8384 140.221 17.3542 140.182 15.8604C139.445 15.7439 138.698 15.6275 137.941 15.5111C137.185 15.3753 136.438 15.2589 135.701 15.1619C135.371 15.1231 135.138 14.9485 135.002 14.6381C134.847 14.3083 134.808 14.0076 134.886 13.7359C134.983 13.4061 135.167 13.183 135.439 13.0666C135.71 12.9308 136.001 12.8823 136.312 12.9211C136.952 13.0181 137.592 13.1248 138.232 13.2412C138.873 13.3382 139.523 13.4352 140.182 13.5322C140.163 13.4352 140.153 13.2897 140.153 13.0957C140.153 11.3496 140.143 9.62292 140.124 7.91563C140.124 6.20833 140.211 4.48164 140.386 2.73555C140.425 2.42513 140.541 2.15352 140.735 1.9207C140.949 1.68789 141.22 1.57148 141.55 1.57148C141.841 1.57148 142.113 1.68789 142.365 1.9207C142.636 2.15352 142.753 2.42513 142.714 2.73555C142.52 4.59805 142.423 6.45085 142.423 8.29395C142.442 10.1176 142.472 11.9704 142.51 13.8523C142.976 13.8911 143.442 13.9299 143.907 13.9688C144.373 13.9882 144.838 13.9979 145.304 13.9979ZM149.378 7.15898C149.572 5.91732 150.009 4.77266 150.688 3.725C151.386 2.67734 152.23 1.7752 153.22 1.01856C153.782 0.572331 154.374 0.291016 154.995 0.17461C155.616 0.0582037 156.256 0.184311 156.916 0.55293C157.42 0.843946 157.924 1.15436 158.429 1.48418C158.953 1.814 159.36 2.24082 159.651 2.76465C159.845 3.09447 159.884 3.40488 159.768 3.6959C159.651 3.96751 159.467 4.18092 159.215 4.33613C158.962 4.47194 158.681 4.52044 158.371 4.48164C158.08 4.44284 157.847 4.25853 157.672 3.92871C157.575 3.7541 157.439 3.60859 157.265 3.49219C157.09 3.35638 156.925 3.23997 156.77 3.14297C156.596 3.04596 156.401 2.91986 156.188 2.76465C155.975 2.60944 155.761 2.51244 155.548 2.47363C155.373 2.41543 155.199 2.43483 155.024 2.53184C154.849 2.60944 154.675 2.72585 154.5 2.88106C154.345 3.01686 154.19 3.17207 154.035 3.34668C153.899 3.50189 153.773 3.6377 153.656 3.7541C152.958 4.49134 152.424 5.28678 152.056 6.14043C151.706 6.99408 151.542 7.93503 151.561 8.96328C151.58 9.66172 151.639 10.3602 151.736 11.0586C152.298 11.0198 152.861 10.981 153.423 10.9422C154.005 10.9034 154.578 10.8646 155.14 10.8258C155.47 10.787 155.742 10.8937 155.955 11.1459C156.188 11.3981 156.304 11.6794 156.304 11.9898C156.304 12.3197 156.188 12.5913 155.955 12.8047C155.742 12.9987 155.47 13.1054 155.14 13.1248C154.636 13.1636 154.122 13.2024 153.598 13.2412C153.094 13.28 152.589 13.3188 152.085 13.3576C152.143 13.6874 152.201 14.0173 152.259 14.3471C152.318 14.6769 152.376 15.0067 152.434 15.3365C152.667 16.714 152.9 18.0721 153.132 19.4107C153.385 20.7494 153.569 22.1172 153.685 23.5141C153.724 23.8439 153.617 24.1155 153.365 24.3289C153.113 24.5617 152.832 24.6781 152.521 24.6781C152.191 24.6781 151.92 24.5617 151.706 24.3289C151.512 24.1155 151.396 23.8439 151.357 23.5141C151.241 21.962 151.037 20.439 150.746 18.9451C150.455 17.4318 150.183 15.9186 149.931 14.4053C149.892 14.2501 149.863 14.0949 149.844 13.9396C149.844 13.7844 149.825 13.6292 149.786 13.474C149.223 13.5128 148.651 13.5419 148.069 13.5613C147.506 13.5807 146.934 13.5904 146.352 13.5904C145.983 13.5904 145.712 13.474 145.537 13.2412C145.343 12.989 145.246 12.7174 145.246 12.4264C145.246 12.1354 145.343 11.8734 145.537 11.6406C145.712 11.3884 145.983 11.2623 146.352 11.2623C147.38 11.2623 148.408 11.2332 149.437 11.175C149.34 10.496 149.281 9.82663 149.262 9.16699C149.243 8.50736 149.281 7.83802 149.378 7.15898ZM164.802 10.7385C165.423 10.6609 166.073 10.6415 166.752 10.6803C167.431 10.6997 168.081 10.8161 168.702 11.0295C169.323 11.2235 169.885 11.5242 170.39 11.9316C170.894 12.3391 171.282 12.8726 171.554 13.5322C171.748 13.9979 171.845 14.4732 171.845 14.9582C171.864 15.4238 171.796 15.8798 171.641 16.326C171.505 16.7528 171.292 17.1699 171.001 17.5773C170.729 17.9654 170.409 18.3243 170.04 18.6541C169.245 19.3719 168.372 19.9831 167.421 20.4875C166.471 20.9919 165.471 21.3799 164.424 21.6516C163.978 21.768 163.512 21.8747 163.027 21.9717C162.561 22.0493 162.086 22.0881 161.601 22.0881C161.116 22.0881 160.641 22.0396 160.175 21.9426C159.709 21.8262 159.273 21.6419 158.865 21.3896C158.574 21.215 158.4 20.9822 158.342 20.6912C158.225 20.3614 158.099 20.051 157.963 19.76C157.827 19.4689 157.692 19.1682 157.556 18.8578C157.439 18.5474 157.342 18.237 157.265 17.9266C157.187 17.6161 157.148 17.296 157.148 16.9662C157.148 16.3066 157.284 15.6857 157.556 15.1037C157.847 14.5023 158.235 13.9785 158.72 13.5322C159.535 12.7562 160.476 12.1354 161.543 11.6697C162.61 11.2041 163.696 10.8937 164.802 10.7385ZM168.091 13.2412C167.567 13.0472 167.004 12.9502 166.403 12.9502C165.762 12.9308 165.122 12.9987 164.482 13.1539C163.842 13.2897 163.231 13.4837 162.649 13.7359C162.105 13.9493 161.543 14.2501 160.961 14.6381C160.398 15.0067 159.981 15.4626 159.709 16.0059C159.554 16.2969 159.477 16.5976 159.477 16.908C159.496 17.199 159.544 17.4997 159.622 17.8102C159.719 18.1012 159.835 18.4019 159.971 18.7123C160.126 19.0033 160.262 19.2943 160.379 19.5854C160.689 19.663 160.883 19.7018 160.961 19.7018C161 19.7212 161.048 19.7309 161.106 19.7309C161.164 19.7309 161.213 19.7309 161.252 19.7309C161.64 19.7697 161.989 19.76 162.299 19.7018C162.513 19.7018 162.784 19.663 163.114 19.5854C163.619 19.4883 164.104 19.3622 164.569 19.207C165.035 19.0324 165.462 18.8481 165.85 18.6541C166.296 18.4407 166.733 18.2079 167.159 17.9557C167.586 17.7035 167.945 17.4415 168.236 17.1699C168.43 16.9953 168.614 16.811 168.789 16.617C168.886 16.52 168.954 16.4424 168.993 16.3842C169.09 16.2484 169.167 16.1514 169.226 16.0932C169.284 16.0156 169.332 15.9283 169.371 15.8313C169.449 15.6954 169.487 15.5887 169.487 15.5111C169.507 15.4723 169.517 15.4238 169.517 15.3656C169.536 15.3074 169.555 15.2589 169.575 15.2201V14.9C169.555 14.8224 169.546 14.7642 169.546 14.7254C169.546 14.6866 169.536 14.6478 169.517 14.609C169.458 14.4732 169.4 14.3762 169.342 14.318C169.303 14.2404 169.255 14.1628 169.196 14.0852C169.216 14.1046 169.187 14.0755 169.109 13.9979C169.051 13.9202 169.012 13.8717 168.993 13.8523L168.76 13.6195C168.663 13.5613 168.556 13.4934 168.44 13.4158C168.323 13.3382 168.207 13.28 168.091 13.2412ZM175.424 1.30957C175.773 1.30957 176.045 1.42598 176.239 1.65879C176.433 1.8916 176.549 2.16322 176.588 2.47363C176.782 4.31673 176.889 6.15983 176.908 8.00293C176.928 9.84603 176.899 11.6891 176.821 13.5322C176.763 15.3753 176.666 17.2184 176.53 19.0615C176.394 20.9046 176.258 22.738 176.123 24.5617C176.084 24.8915 175.958 25.1632 175.744 25.3766C175.55 25.6094 175.288 25.7258 174.959 25.7258C174.668 25.7258 174.396 25.6094 174.144 25.3766C173.892 25.1632 173.775 24.8915 173.795 24.5617C173.93 22.738 174.066 20.9046 174.202 19.0615C174.357 17.2184 174.464 15.3753 174.522 13.5322C174.6 11.6891 174.629 9.84603 174.609 8.00293C174.59 6.15983 174.483 4.31673 174.289 2.47363C174.25 2.16322 174.357 1.8916 174.609 1.65879C174.862 1.42598 175.133 1.30957 175.424 1.30957ZM179.935 23.8633C180.09 22.932 180.265 22.0202 180.459 21.1277C180.672 20.2159 180.827 19.2943 180.924 18.3631C181.002 17.4512 181.012 16.5588 180.954 15.6857C180.915 14.7933 180.973 13.8911 181.128 12.9793C181.167 12.6689 181.342 12.4361 181.652 12.2809C181.982 12.1257 182.282 12.0868 182.554 12.1645C182.884 12.2615 183.107 12.4458 183.223 12.7174C183.359 12.989 183.408 13.28 183.369 13.5904C183.291 14.0367 183.253 14.4926 183.253 14.9582C183.272 15.4238 183.291 15.8895 183.311 16.3551C183.311 17.2475 183.253 18.14 183.136 19.0324C183.02 19.9637 182.865 20.8755 182.671 21.768C182.496 22.6604 182.331 23.5626 182.176 24.4744C182.118 24.7848 181.933 25.0176 181.623 25.1729C181.312 25.3281 181.021 25.3669 180.75 25.2893C180.42 25.1923 180.187 25.0079 180.051 24.7363C179.916 24.4647 179.877 24.1737 179.935 23.8633ZM181.332 10.4766C181.196 10.4378 181.06 10.3796 180.924 10.302C180.789 10.2049 180.692 10.0885 180.633 9.95273C180.575 9.79753 180.527 9.66172 180.488 9.54531C180.449 9.42891 180.43 9.2931 180.43 9.13789C180.43 8.96328 180.459 8.78867 180.517 8.61406C180.595 8.26484 180.75 8.01263 180.983 7.85742C181.06 7.74102 181.167 7.65371 181.303 7.59551C181.516 7.4597 181.759 7.3918 182.03 7.3918C182.302 7.3724 182.544 7.4403 182.758 7.59551C182.855 7.67311 182.952 7.76042 183.049 7.85742C183.146 7.93503 183.223 8.04173 183.282 8.17754C183.32 8.27454 183.359 8.38125 183.398 8.49766C183.456 8.61406 183.476 8.73047 183.456 8.84688C183.437 8.98268 183.417 9.10879 183.398 9.2252C183.379 9.3416 183.33 9.44831 183.253 9.54531C183.156 9.68112 183.078 9.77813 183.02 9.83633C182.962 9.89453 182.865 9.97214 182.729 10.0691C182.651 10.1467 182.535 10.2049 182.379 10.2438C181.972 10.4766 181.623 10.5542 181.332 10.4766ZM193.671 10.7385C194.292 10.6609 194.942 10.6415 195.621 10.6803C196.3 10.6997 196.95 10.8161 197.571 11.0295C198.191 11.2235 198.754 11.5242 199.258 11.9316C199.763 12.3391 200.151 12.8726 200.422 13.5322C200.616 13.9979 200.713 14.4732 200.713 14.9582C200.733 15.4238 200.665 15.8798 200.51 16.326C200.374 16.7528 200.161 17.1699 199.87 17.5773C199.598 17.9654 199.278 18.3243 198.909 18.6541C198.114 19.3719 197.241 19.9831 196.29 20.4875C195.339 20.9919 194.34 21.3799 193.293 21.6516C192.846 21.768 192.381 21.8747 191.896 21.9717C191.43 22.0493 190.955 22.0881 190.47 22.0881C189.985 22.0881 189.509 22.0396 189.044 21.9426C188.578 21.8262 188.142 21.6419 187.734 21.3896C187.443 21.215 187.269 20.9822 187.21 20.6912C187.094 20.3614 186.968 20.051 186.832 19.76C186.696 19.4689 186.56 19.1682 186.425 18.8578C186.308 18.5474 186.211 18.237 186.134 17.9266C186.056 17.6161 186.017 17.296 186.017 16.9662C186.017 16.3066 186.153 15.6857 186.425 15.1037C186.716 14.5023 187.104 13.9785 187.589 13.5322C188.404 12.7562 189.344 12.1354 190.412 11.6697C191.479 11.2041 192.565 10.8937 193.671 10.7385ZM196.959 13.2412C196.436 13.0472 195.873 12.9502 195.271 12.9502C194.631 12.9308 193.991 12.9987 193.351 13.1539C192.711 13.2897 192.099 13.4837 191.517 13.7359C190.974 13.9493 190.412 14.2501 189.829 14.6381C189.267 15.0067 188.85 15.4626 188.578 16.0059C188.423 16.2969 188.345 16.5976 188.345 16.908C188.365 17.199 188.413 17.4997 188.491 17.8102C188.588 18.1012 188.704 18.4019 188.84 18.7123C188.995 19.0033 189.131 19.2943 189.247 19.5854C189.558 19.663 189.752 19.7018 189.829 19.7018C189.868 19.7212 189.917 19.7309 189.975 19.7309C190.033 19.7309 190.082 19.7309 190.121 19.7309C190.509 19.7697 190.858 19.76 191.168 19.7018C191.382 19.7018 191.653 19.663 191.983 19.5854C192.487 19.4883 192.972 19.3622 193.438 19.207C193.904 19.0324 194.331 18.8481 194.719 18.6541C195.165 18.4407 195.601 18.2079 196.028 17.9557C196.455 17.7035 196.814 17.4415 197.105 17.1699C197.299 16.9953 197.483 16.811 197.658 16.617C197.755 16.52 197.823 16.4424 197.862 16.3842C197.959 16.2484 198.036 16.1514 198.094 16.0932C198.153 16.0156 198.201 15.9283 198.24 15.8313C198.317 15.6954 198.356 15.5887 198.356 15.5111C198.376 15.4723 198.385 15.4238 198.385 15.3656C198.405 15.3074 198.424 15.2589 198.444 15.2201V14.9C198.424 14.8224 198.414 14.7642 198.414 14.7254C198.414 14.6866 198.405 14.6478 198.385 14.609C198.327 14.4732 198.269 14.3762 198.211 14.318C198.172 14.2404 198.123 14.1628 198.065 14.0852C198.085 14.1046 198.056 14.0755 197.978 13.9979C197.92 13.9202 197.881 13.8717 197.862 13.8523L197.629 13.6195C197.532 13.5613 197.425 13.4934 197.309 13.4158C197.192 13.3382 197.076 13.28 196.959 13.2412ZM204.06 22.1172C204.312 22.2724 204.506 22.5052 204.642 22.8156C204.778 23.126 204.797 23.4171 204.7 23.6887C204.584 24.0185 204.39 24.261 204.118 24.4162C203.905 24.649 203.633 24.7557 203.304 24.7363C202.974 24.7363 202.702 24.6296 202.489 24.4162C202.198 24.1834 202.013 23.9894 201.936 23.8342C201.781 23.5626 201.732 23.291 201.79 23.0193C201.868 22.7477 202.023 22.5149 202.256 22.3209C202.295 22.2821 202.343 22.2433 202.401 22.2045C202.46 22.1463 202.518 22.0978 202.576 22.059C202.751 21.9814 202.848 21.9426 202.867 21.9426C202.906 21.9426 203.022 21.9232 203.216 21.8844C203.371 21.8844 203.488 21.9038 203.565 21.9426C203.759 21.9814 203.924 22.0396 204.06 22.1172ZM215.002 21.8844C215.08 22.156 215.041 22.447 214.886 22.7574C214.731 23.0678 214.498 23.2521 214.187 23.3104C213.14 23.485 212.102 23.4753 211.074 23.2813C210.045 23.0678 209.095 22.6216 208.222 21.9426C207.368 21.2635 206.757 20.4002 206.388 19.3525C206.039 18.2855 205.981 17.2184 206.214 16.1514C206.427 15.2007 206.873 14.3762 207.552 13.6777C208.231 12.9793 209.007 12.4361 209.88 12.048C210.657 11.6794 211.471 11.3884 212.325 11.175C213.179 10.9616 214.032 10.8937 214.886 10.9713C215.216 11.0101 215.487 11.1362 215.701 11.3496C215.934 11.5436 216.05 11.8055 216.05 12.1354C216.05 12.4264 215.934 12.698 215.701 12.9502C215.487 13.2024 215.216 13.3188 214.886 13.2994C214.265 13.2412 213.654 13.2703 213.053 13.3867C212.451 13.5031 211.869 13.6874 211.306 13.9396C210.977 14.0949 210.647 14.2598 210.317 14.4344C210.007 14.609 209.735 14.803 209.502 15.0164C209.25 15.2492 209.037 15.482 208.862 15.7148C208.707 15.9477 208.59 16.2193 208.513 16.5297C208.435 16.8401 208.406 17.1699 208.425 17.5191C208.445 17.8684 208.503 18.2176 208.6 18.5668C208.716 18.8966 208.872 19.207 209.066 19.498C209.26 19.7697 209.492 20.0025 209.764 20.1965C210.327 20.6039 210.938 20.8852 211.597 21.0404C212.276 21.1762 212.936 21.1859 213.576 21.0695C213.887 21.0113 214.178 21.0501 214.449 21.1859C214.721 21.3217 214.905 21.5546 215.002 21.8844ZM224.751 10.7385C225.372 10.6609 226.022 10.6415 226.701 10.6803C227.38 10.6997 228.03 10.8161 228.651 11.0295C229.272 11.2235 229.834 11.5242 230.339 11.9316C230.843 12.3391 231.231 12.8726 231.503 13.5322C231.697 13.9979 231.794 14.4732 231.794 14.9582C231.813 15.4238 231.745 15.8798 231.59 16.326C231.454 16.7528 231.241 17.1699 230.95 17.5773C230.678 17.9654 230.358 18.3243 229.99 18.6541C229.194 19.3719 228.321 19.9831 227.37 20.4875C226.42 20.9919 225.421 21.3799 224.373 21.6516C223.927 21.768 223.461 21.8747 222.976 21.9717C222.511 22.0493 222.035 22.0881 221.55 22.0881C221.065 22.0881 220.59 22.0396 220.124 21.9426C219.659 21.8262 219.222 21.6419 218.815 21.3896C218.524 21.215 218.349 20.9822 218.291 20.6912C218.174 20.3614 218.048 20.051 217.912 19.76C217.777 19.4689 217.641 19.1682 217.505 18.8578C217.389 18.5474 217.292 18.237 217.214 17.9266C217.136 17.6161 217.098 17.296 217.098 16.9662C217.098 16.3066 217.233 15.6857 217.505 15.1037C217.796 14.5023 218.184 13.9785 218.669 13.5322C219.484 12.7562 220.425 12.1354 221.492 11.6697C222.559 11.2041 223.645 10.8937 224.751 10.7385ZM228.04 13.2412C227.516 13.0472 226.953 12.9502 226.352 12.9502C225.712 12.9308 225.071 12.9987 224.431 13.1539C223.791 13.2897 223.18 13.4837 222.598 13.7359C222.055 13.9493 221.492 14.2501 220.91 14.6381C220.347 15.0067 219.93 15.4626 219.659 16.0059C219.503 16.2969 219.426 16.5976 219.426 16.908C219.445 17.199 219.494 17.4997 219.571 17.8102C219.668 18.1012 219.785 18.4019 219.92 18.7123C220.076 19.0033 220.212 19.2943 220.328 19.5854C220.638 19.663 220.832 19.7018 220.91 19.7018C220.949 19.7212 220.997 19.7309 221.055 19.7309C221.114 19.7309 221.162 19.7309 221.201 19.7309C221.589 19.7697 221.938 19.76 222.249 19.7018C222.462 19.7018 222.734 19.663 223.063 19.5854C223.568 19.4883 224.053 19.3622 224.519 19.207C224.984 19.0324 225.411 18.8481 225.799 18.6541C226.245 18.4407 226.682 18.2079 227.109 17.9557C227.535 17.7035 227.894 17.4415 228.185 17.1699C228.379 16.9953 228.564 16.811 228.738 16.617C228.835 16.52 228.903 16.4424 228.942 16.3842C229.039 16.2484 229.117 16.1514 229.175 16.0932C229.233 16.0156 229.281 15.9283 229.32 15.8313C229.398 15.6954 229.437 15.5887 229.437 15.5111C229.456 15.4723 229.466 15.4238 229.466 15.3656C229.485 15.3074 229.505 15.2589 229.524 15.2201V14.9C229.505 14.8224 229.495 14.7642 229.495 14.7254C229.495 14.6866 229.485 14.6478 229.466 14.609C229.408 14.4732 229.349 14.3762 229.291 14.318C229.252 14.2404 229.204 14.1628 229.146 14.0852C229.165 14.1046 229.136 14.0755 229.058 13.9979C229 13.9202 228.961 13.8717 228.942 13.8523L228.709 13.6195C228.612 13.5613 228.505 13.4934 228.389 13.4158C228.273 13.3382 228.156 13.28 228.04 13.2412ZM236.072 24.5326C235.8 24.6296 235.5 24.6005 235.17 24.4453C234.859 24.2901 234.685 24.0573 234.646 23.7469C234.374 22.0396 234.2 20.3517 234.122 18.6832C234.064 16.9953 234.035 15.2977 234.035 13.5904C234.035 13.2994 234.112 13.0666 234.268 12.892C234.423 12.7174 234.607 12.601 234.821 12.5428C235.034 12.4846 235.257 12.4749 235.49 12.5137C235.723 12.5525 235.917 12.6495 236.072 12.8047C236.518 12.4361 236.993 12.116 237.498 11.8443C238.002 11.5727 238.507 11.3981 239.011 11.3205C239.535 11.2235 240.049 11.2526 240.554 11.4078C241.058 11.5436 241.533 11.8443 241.979 12.31C242.348 12.698 242.668 13.1151 242.94 13.5613C243.211 13.9882 243.454 14.4441 243.667 14.9291C243.958 14.1919 244.366 13.5128 244.89 12.892C245.413 12.2712 246.083 11.854 246.898 11.6406C247.499 11.4854 247.974 11.5242 248.324 11.757C248.673 11.9704 249.003 12.31 249.313 12.7756C249.643 13.2606 249.944 13.7553 250.215 14.2598C250.506 14.7642 250.778 15.2783 251.03 15.8021C251.282 16.326 251.525 16.8498 251.758 17.3736C251.99 17.8975 252.223 18.4116 252.456 18.916C252.728 19.4786 252.96 20.0413 253.154 20.6039C253.368 21.1471 253.504 21.7292 253.562 22.35C253.601 22.6798 253.484 22.9611 253.213 23.1939C252.96 23.4074 252.689 23.5141 252.398 23.5141C252.068 23.5141 251.796 23.4074 251.583 23.1939C251.389 22.9611 251.273 22.6798 251.234 22.35C251.195 21.8844 251.069 21.4382 250.855 21.0113C250.661 20.5651 250.467 20.1286 250.273 19.7018C250.06 19.2555 249.847 18.7996 249.633 18.334C249.439 17.8684 249.235 17.4124 249.022 16.9662C248.809 16.52 248.576 16.0738 248.324 15.6275C248.091 15.1813 247.839 14.7448 247.567 14.318C247.528 14.2598 247.489 14.2016 247.451 14.1434C247.412 14.0852 247.373 14.027 247.334 13.9688C246.946 14.1822 246.665 14.3859 246.49 14.5799C246.316 14.7739 246.151 15.0358 245.996 15.3656C245.86 15.6566 245.743 15.9671 245.646 16.2969C245.569 16.6073 245.501 16.9274 245.443 17.2572C245.326 17.8781 245.239 18.528 245.181 19.207C245.142 19.7115 245.142 20.1965 245.181 20.6621C245.239 21.1277 245.219 21.6128 245.122 22.1172C245.064 22.4276 244.88 22.6604 244.57 22.8156C244.279 22.9708 243.987 23.0096 243.696 22.932C243.425 22.8544 243.221 22.7186 243.085 22.5246C242.969 22.3112 242.891 22.0687 242.853 21.7971C242.775 21.1762 242.688 20.536 242.591 19.8764C242.494 19.2167 242.368 18.5668 242.212 17.9266C242.057 17.2669 241.853 16.6364 241.601 16.035C241.368 15.4141 241.058 14.8418 240.67 14.318C240.398 13.9688 240.117 13.7359 239.826 13.6195C239.554 13.5031 239.215 13.5516 238.807 13.765C238.361 13.9979 237.925 14.2792 237.498 14.609C237.071 14.9388 236.693 15.3074 236.363 15.7148C236.382 16.9565 236.421 18.1982 236.479 19.4398C236.557 20.6621 236.693 21.8844 236.887 23.1066C236.926 23.4365 236.877 23.7372 236.741 24.0088C236.625 24.261 236.402 24.4356 236.072 24.5326Z" fill="#67A67D"/>
</svg>
